<svg width="40" height="40" viewBox="0 0 40 40" fill="none" xmlns="http://www.w3.org/2000/svg">
<path d="M17.0859 34.8047C16.5703 34.8594 16.1328 34.9141 15.6953 34.9609C13.4219 35.1875 11.4375 34.5703 9.9375 32.7969C9.46875 32.2422 9.20312 31.5234 8.80469 30.9063C8.1875 29.9375 7.55469 28.9766 6.875 28.0469C6.64063 27.7266 6.23438 27.5391 5.92188 27.2656C5.82031 27.1797 5.78906 27.0156 5.71875 26.8828C5.85937 26.8281 5.99219 26.7344 6.13281 26.7188C7.92969 26.5547 9.19531 27.3828 10.0781 28.875C11.1797 30.7344 12.7734 31.75 14.9375 31.75C15.5625 31.75 16.1875 31.5391 16.8047 31.3984C16.9219 31.3672 17.0625 31.1875 17.0781 31.0547C17.1875 30.2422 17.2891 29.4297 17.6641 28.6875C17.8047 28.4141 17.9688 28.1562 18.1328 27.875C17.5 27.75 16.8906 27.6563 16.2891 27.5078C13.5156 26.8047 11.2266 25.4141 9.89844 22.7734C9.38281 21.7422 9.09375 20.6328 9.05469 19.4766C8.99219 17.6953 9.01563 15.9063 9.375 14.1484C9.63281 12.9141 10.1016 11.7656 11.0391 10.875C11.2422 10.6797 11.2813 10.5078 11.1719 10.2109C10.6484 8.75 10.5938 7.26563 11.0391 5.77344C11.1328 5.45313 11.2188 5.13281 11.3125 4.79688C13.4531 5.20312 14.7266 6.64844 15.9219 8.25C17.1563 7.33594 18.6172 7.25781 20.0391 7.16406C21.7266 7.05469 23.4219 7.07812 25.1016 7.35156C25.9766 7.49219 26.5156 7.67187 27.3672 8.17969C28.1016 7.42187 28.7891 6.65625 29.5469 5.96094C30.1484 5.40625 30.8984 5.05469 31.7109 4.86719C31.9375 4.8125 32.0547 4.83594 32.1484 5.08594C32.7812 6.8125 32.875 8.53125 32.1797 10.2578C32.0859 10.4922 32.0937 10.6563 32.2891 10.8438C33.4141 11.9141 33.9297 13.2969 34.1016 14.7891C34.2578 16.1719 34.3438 17.5625 34.3438 18.9531C34.3438 20.9297 33.7578 22.7422 32.5156 24.2969C31.6406 25.3984 30.5078 26.1875 29.2266 26.7812C27.9844 27.3516 26.6875 27.6797 25.3437 27.8516C25.3125 27.8594 25.2812 27.8828 25.2266 27.9063C26.1484 29.2266 26.2969 30.7109 26.2813 32.25C26.2578 34.4922 26.2656 36.7266 26.2813 38.9687C26.2813 39.3203 26.1797 39.4062 25.8359 39.4062C23.0625 39.3906 20.2891 39.3906 17.5156 39.4062C17.1719 39.4062 17.0625 39.2969 17.0625 38.9609C17.0781 37.75 17.0703 36.5391 17.0703 35.3281C17.0859 35.1484 17.0859 34.9922 17.0859 34.8047Z" fill="white"/>
</svg>
