<svg width="50" height="50" viewBox="0 0 50 50" fill="none" xmlns="http://www.w3.org/2000/svg">
<path d="M25.0001 0C11.1947 0 0 11.476 0 25.6329C0 36.9583 7.16328 46.5665 17.0967 49.956C18.346 50.1932 18.8048 49.3999 18.8048 48.7228C18.8048 48.1117 18.7815 46.0923 18.7709 43.9505C11.8157 45.5011 10.3481 40.9261 10.3481 40.9261C9.21085 37.9633 7.57228 37.1756 7.57228 37.1756C5.30413 35.5846 7.74326 35.6172 7.74326 35.6172C10.2538 35.7981 11.5757 38.2588 11.5757 38.2588C13.8054 42.1776 17.4241 41.0445 18.8507 40.3898C19.075 38.7328 19.723 37.6022 20.4379 36.9621C14.8852 36.3138 9.04772 34.1159 9.04772 24.2942C9.04772 21.4958 10.0244 19.209 11.6237 17.414C11.3641 16.7683 10.5085 14.1612 11.8659 10.6305C11.8659 10.6305 13.9652 9.94154 18.7427 13.258C20.7367 12.6899 22.8755 12.4052 25.0001 12.3956C27.1247 12.4052 29.265 12.6899 31.263 13.258C36.0348 9.94154 38.1312 10.6305 38.1312 10.6305C39.4919 14.1612 38.6359 16.7683 38.3763 17.414C39.9792 19.209 40.9491 21.4956 40.9491 24.2942C40.9491 34.1392 35.1007 36.3072 29.5339 36.9416C30.4305 37.7371 31.2295 39.2971 31.2295 41.6884C31.2295 45.1181 31.2005 47.8785 31.2005 48.7228C31.2005 49.4049 31.6504 50.2043 32.9179 49.9526C42.8457 46.5593 50 36.9545 50 25.6329C50 11.476 38.8069 0 25.0001 0Z" fill="white"/>
</svg>
